# xmcd
#
# Track frame offsets:
#	150
#	13372
#	35501
#	56238
#	73172
#	101926
#	123821
#	141811
#	160790
#	178079
#	208921
#	225619
#	251893
#	273107
#
# Disc length: 4203 seconds
#
# Revision: 0
# Processed by: cddbd v1.5.2PL0 Copyright (c) Steve Scherf et al.
# Submitted via: EasyCDDAExtractor 15.2.5.1
#
DISCID=d510690e
DTITLE=Travellin brothers - Big band
DYEAR=2011
DGENRE=Big Band
TTITLE0=Lets have a natural ball
TTITLE1=Into the blue
TTITLE2=I thank you
TTITLE3=C.O.D.
TTITLE4=Hoochie coochie man
TTITLE5=I got a woman
TTITLE6=I dont need no doctor
TTITLE7=Payback time
TTITLE8=I just wanna make love to you
TTITLE9=Midnight train
TTITLE10=Swing and jive
TTITLE11=Sweet little angel
TTITLE12=Rocket to the moon
TTITLE13=Big band theme
EXTD=
EXTT0=
EXTT1=
EXTT2=
EXTT3=
EXTT4=
EXTT5=
EXTT6=
EXTT7=
EXTT8=
EXTT9=
EXTT10=
EXTT11=
EXTT12=
EXTT13=
PLAYORDER=
